<?xml version="1.0" encoding="utf-8"?>
<!-- Generator: Adobe Illustrator 28.0.0, SVG Export Plug-In . SVG Version: 6.00 Build 0)  -->
<svg version="1.1" id="Capa_1" xmlns="http://www.w3.org/2000/svg" xmlns:xlink="http://www.w3.org/1999/xlink" x="0px" y="0px"
	 viewBox="0 0 150 150" style="enable-background:new 0 0 150 150;" xml:space="preserve">
<style type="text/css">
	.st0{fill:url(#SVGID_1_);}
	.st1{fill:#FFFFFF;}
	.st2{fill-rule:evenodd;clip-rule:evenodd;fill:#FFFFFF;}
	.st3{fill:url(#SVGID_00000168828003971947036330000010623764693712040586_);}
	.st4{fill:url(#SVGID_00000171716555615584459270000014298984758422252436_);}
	.st5{fill:url(#SVGID_00000124875868490679423730000010527253083501611416_);}
	.st6{fill:url(#SVGID_00000127036562228364266410000014344492929650302344_);}
	.st7{fill-rule:evenodd;clip-rule:evenodd;fill:#FF1753;}
	.st8{fill-rule:evenodd;clip-rule:evenodd;fill:#00C9D0;}
	.st9{fill:#A1C945;}
</style>
<g>
	
		<linearGradient id="SVGID_1_" gradientUnits="userSpaceOnUse" x1="-191.2738" y1="-168.963" x2="-64.3261" y2="-295.9107" gradientTransform="matrix(0 1 -1 0 -157.4369 202.8)">
		<stop  offset="0" style="stop-color:#23004A"/>
		<stop  offset="0.9565" style="stop-color:#020003"/>
		<stop  offset="1" style="stop-color:#000000"/>
	</linearGradient>
	<path class="st0" d="M0,110.76V39.24C0,17.66,17.66,0,39.24,0h71.53C132.34,0,150,17.66,150,39.24v71.53
		c0,21.58-17.66,39.24-39.24,39.24H39.24C17.66,150,0,132.34,0,110.76z"/>
	<g>
		<path class="st7" d="M95.28,61.24c6.14,4.38,13.66,6.97,21.78,6.97V52.59c-1.54,0-3.07-0.16-4.57-0.48V64.4
			c-8.12,0-15.64-2.58-21.78-6.96v31.87c0,15.94-12.93,28.87-28.88,28.87c-5.95,0-11.48-1.8-16.08-4.88
			c5.24,5.36,12.56,8.69,20.65,8.69c15.95,0,28.89-12.92,28.89-28.87L95.28,61.24L95.28,61.24z M100.92,45.49
			c-3.14-3.42-5.2-7.85-5.64-12.74v-2.01h-4.33C92.04,36.95,95.76,42.27,100.92,45.49L100.92,45.49z M55.84,101.06
			c-1.75-2.3-2.7-5.11-2.7-7.99c0-7.29,5.92-13.2,13.21-13.2c1.36,0,2.71,0.21,4.01,0.62V64.52c-1.51-0.21-3.04-0.29-4.57-0.26
			v12.43c-1.3-0.41-2.65-0.62-4.01-0.62c-7.3,0-13.21,5.91-13.21,13.21C48.57,94.42,51.52,98.89,55.84,101.06z"/>
		<path class="st2" d="M90.71,57.44c6.14,4.38,13.66,6.96,21.78,6.96V52.11c-4.53-0.96-8.54-3.33-11.56-6.63
			c-5.16-3.22-8.88-8.53-9.98-14.75H79.56v62.38c-0.03,7.27-5.93,13.16-13.21,13.16c-4.29,0-8.1-2.04-10.52-5.21
			c-4.31-2.17-7.27-6.64-7.27-11.8c0-7.29,5.91-13.21,13.21-13.21c1.4,0,2.75,0.22,4.01,0.62V64.25
			c-15.67,0.32-28.28,13.12-28.28,28.86c0,7.86,3.14,14.98,8.23,20.18c4.6,3.08,10.13,4.88,16.08,4.88
			c15.95,0,28.88-12.92,28.88-28.87V57.44z"/>
		<path class="st8" d="M112.49,52.11v-3.32c-4.09,0.01-8.09-1.14-11.56-3.3C103.99,48.84,108.04,51.16,112.49,52.11z M90.95,30.73
			c-0.1-0.59-0.18-1.19-0.24-1.79v-2.01H74.99v62.38c-0.03,7.27-5.93,13.16-13.21,13.16c-2.14,0-4.16-0.51-5.94-1.41
			c2.41,3.17,6.23,5.21,10.52,5.21c7.28,0,13.19-5.89,13.21-13.16V30.73H90.95z M65.79,64.25v-3.54c-1.31-0.18-2.64-0.27-3.96-0.27
			c-15.95,0-28.89,12.92-28.89,28.87c0,10,5.08,18.8,12.81,23.99c-5.09-5.2-8.23-12.33-8.23-20.18
			C37.51,77.37,50.12,64.58,65.79,64.25L65.79,64.25z"/>
	</g>
</g>
</svg>
