<?xml version="1.0" encoding="utf-8"?>
<!-- Generator: Adobe Illustrator 28.0.0, SVG Export Plug-In . SVG Version: 6.00 Build 0)  -->
<svg version="1.1" id="Capa_1" xmlns="http://www.w3.org/2000/svg" xmlns:xlink="http://www.w3.org/1999/xlink" x="0px" y="0px"
	 viewBox="0 0 150 150" style="enable-background:new 0 0 150 150;" xml:space="preserve">
<style type="text/css">
	.st0{fill:url(#SVGID_1_);}
	.st1{fill:#FFFFFF;}
	.st2{fill-rule:evenodd;clip-rule:evenodd;fill:#FFFFFF;}
	.st3{fill:url(#SVGID_00000117642881807738285230000013197005654401653930_);}
	.st4{fill:url(#SVGID_00000090996944298092191220000007896131800878968484_);}
	.st5{fill:url(#SVGID_00000098211179798817560770000004373962342876599210_);}
	.st6{fill:url(#SVGID_00000163754191920408803630000004962896322917568934_);}
	.st7{fill-rule:evenodd;clip-rule:evenodd;fill:#FF1753;}
	.st8{fill-rule:evenodd;clip-rule:evenodd;fill:#00C9D0;}
	.st9{fill:#A1C945;}
</style>
<g>
	<path class="st9" d="M0,110.76l0-71.53C0,17.66,17.66,0,39.24,0l71.53,0C132.34,0,150,17.66,150,39.24l0,71.53
		c0,21.58-17.66,39.24-39.24,39.24l-71.53,0C17.66,150,0,132.34,0,110.76z"/>
	<g>
		<path class="st1" d="M114.98,91.81c-1.71-0.92-3.42-1.84-5.19-2.79c3.41-8.84,3.59-17.69,0.48-26.52
			c-5.42,1.54-10.75,3.05-16.19,4.59c0.53,4.37,0.7,8.91,0.26,13.62c-1.87-1.01-3.67-1.95-5.43-2.96c-0.19-0.11-0.26-0.54-0.28-0.82
			c-0.13-2.65-0.23-5.3-0.36-7.95c-0.02-0.37-0.11-0.74-0.15-0.96c-4.41,0.2-8.71,0.56-13.01,0.55c-4.3-0.01-8.6-0.39-13.05-0.61
			c-0.77,5.47-0.62,11.07,0.22,16.57c3.77-0.23,7.4-0.47,11.03-0.66c1.34-0.07,2.68,0,4.03-0.02c0.56-0.01,0.85,0.14,0.97,0.76
			c0.33,1.72,0.75,3.42,1.16,5.23c-5.36-0.16-10.62-0.06-15.96,0.71c2.2,8.11,5.84,15.32,11.56,21.56c2.88-2.97,5.09-6.3,7.15-10.02
			c1.14,5.06,2.22,9.89,3.34,14.86c-6.74,1.65-13.44,1.7-20.12,0.08c-10.41-2.52-18.78-8.17-25.09-16.83
			c-12.5-17.18-10.33-41.08,5.05-56.06c15.26-14.86,39.28-16.27,56.17-3.2C119.21,54.6,121.73,76.68,114.98,91.81z M40.46,62.38
			c-3.24,9.29-2.97,18.41,0.75,27.32c5.13-1.44,10.12-2.83,15.14-4.24c-0.1-0.8-0.21-1.66-0.3-2.51c-0.56-5.1-0.6-10.2,0.03-15.3
			c0.09-0.75-0.13-0.96-0.84-1.11c-2.03-0.42-4.05-0.89-6.04-1.46C46.32,64.25,43.47,63.32,40.46,62.38z M87.03,61.95
			c-2.25-8.85-6.17-16.66-11.93-23.71c-5.73,7.07-9.67,14.86-11.89,23.65C71.2,62.93,79.03,62.94,87.03,61.95z M83.4,38.83
			c1.9,3.58,3.98,7.04,5.61,10.7c1.63,3.65,2.81,7.51,4.23,11.4c4.77-0.91,9.62-2.27,14.45-4.1C102,47.35,93.95,41.37,83.4,38.83z
			 M66.86,39.04c-10.43,2.56-18.29,8.5-23.84,17.8c4.7,1.75,9.37,3.08,14.25,4.05C59.18,53.01,62.41,45.77,66.86,39.04z
			 M44.22,95.02c2.7,6.35,16.41,16.12,22.2,15.94c-4.18-5.93-7.04-12.44-8.9-19.62C53.01,92.58,48.63,93.79,44.22,95.02z"/>
		<path class="st1" d="M116.05,116c-2.75,2.04-5.39,3.99-8.11,6c-3.19-4.31-6.34-8.57-9.6-12.97c-2.29,3.45-4.51,6.8-6.87,10.37
			c-2.94-13.09-5.83-25.96-8.76-39.01c11.97,6.44,23.78,12.79,35.79,19.25c-4.08,1.16-7.96,2.26-12.01,3.41
			C109.7,107.41,112.84,111.66,116.05,116z"/>
	</g>
</g>
</svg>
