<?xml version="1.0" encoding="utf-8"?>
<!-- Generator: Adobe Illustrator 28.0.0, SVG Export Plug-In . SVG Version: 6.00 Build 0)  -->
<svg version="1.1" id="Capa_1" xmlns="http://www.w3.org/2000/svg" xmlns:xlink="http://www.w3.org/1999/xlink" x="0px" y="0px"
	 viewBox="0 0 150 150" style="enable-background:new 0 0 150 150;" xml:space="preserve">
<style type="text/css">
	.st0{fill:url(#SVGID_1_);}
	.st1{fill:#FFFFFF;}
	.st2{fill-rule:evenodd;clip-rule:evenodd;fill:#FFFFFF;}
	.st3{fill:url(#SVGID_00000058589410715691031410000016376174809848003972_);}
	.st4{fill:url(#SVGID_00000057851417181325100330000000849828281408429186_);}
	.st5{fill:url(#SVGID_00000018211093760859543210000004136292718070649749_);}
	.st6{fill:url(#SVGID_00000017515626658440579110000017031997312991972741_);}
	.st7{fill-rule:evenodd;clip-rule:evenodd;fill:#FF1753;}
	.st8{fill-rule:evenodd;clip-rule:evenodd;fill:#00C9D0;}
	.st9{fill:#A1C945;}
</style>
<g>
	
		<linearGradient id="SVGID_1_" gradientUnits="userSpaceOnUse" x1="331.1755" y1="-155.9664" x2="458.1233" y2="-29.0186" gradientTransform="matrix(0 1 -1 0 -17.4926 -319.6495)">
		<stop  offset="0" style="stop-color:#00FB73"/>
		<stop  offset="1" style="stop-color:#00B25B"/>
	</linearGradient>
	<path class="st0" d="M0,110.76V39.24C0,17.66,17.66,0,39.24,0h71.53C132.34,0,150,17.66,150,39.24v71.53
		c0,21.58-17.66,39.24-39.24,39.24l-71.53,0C17.66,150,0,132.34,0,110.76z"/>
	<path class="st1" d="M34.48,117.44l6.25-23.33c-3.54-6.39-5.4-13.55-5.4-20.81c0-23.75,19.33-43.08,43.08-43.08
		c23.75,0,43.08,19.33,43.08,43.08c0,23.75-19.33,43.08-43.08,43.08c-7.13,0-14.17-1.8-20.48-5.22L34.48,117.44z M59.1,102.42
		l1.48,0.88c5.42,3.23,11.59,4.94,17.83,4.94c19.26,0,34.94-15.67,34.94-34.94S97.67,38.36,78.41,38.36
		c-19.26,0-34.94,15.67-34.94,34.94c0,6.36,1.77,12.62,5.11,18.11l0.91,1.49L46,105.93L59.1,102.42z"/>
	<path class="st2" d="M94.43,79.29c-1.77-1.06-4.08-2.24-6.17-1.39c-1.6,0.66-2.63,3.16-3.66,4.45c-0.53,0.66-1.17,0.76-1.99,0.43
		c-6.02-2.4-10.63-6.41-13.94-11.95c-0.56-0.86-0.46-1.54,0.22-2.34c1-1.18,2.26-2.52,2.53-4.11c0.27-1.59-0.47-3.45-1.13-4.87
		c-0.84-1.81-1.78-4.39-3.59-5.42c-1.67-0.94-3.86-0.41-5.35,0.8c-2.56,2.09-3.8,5.36-3.76,8.6c0.01,0.92,0.12,1.84,0.34,2.73
		c0.52,2.14,1.51,4.14,2.62,6.03c0.84,1.43,1.75,2.82,2.73,4.16c3.22,4.37,7.22,8.17,11.86,11.01c2.32,1.42,4.81,2.66,7.39,3.52
		c2.9,0.96,5.48,1.95,8.61,1.36c3.28-0.62,6.5-2.65,7.8-5.81c0.38-0.93,0.58-1.98,0.36-2.96C98.85,81.49,96.08,80.28,94.43,79.29z"
		/>
</g>
</svg>
