<?xml version="1.0" encoding="utf-8"?>
<!-- Generator: Adobe Illustrator 28.0.0, SVG Export Plug-In . SVG Version: 6.00 Build 0)  -->
<svg version="1.1" id="Capa_1" xmlns="http://www.w3.org/2000/svg" xmlns:xlink="http://www.w3.org/1999/xlink" x="0px" y="0px"
	 viewBox="0 0 150 150" style="enable-background:new 0 0 150 150;" xml:space="preserve">
<style type="text/css">
	.st0{fill:url(#SVGID_1_);}
	.st1{fill:#FFFFFF;}
	.st2{fill-rule:evenodd;clip-rule:evenodd;fill:#FFFFFF;}
	.st3{fill:url(#SVGID_00000123418005941336326460000002929505672475207060_);}
	.st4{fill:url(#SVGID_00000079487368287060527080000004211350207829458593_);}
	.st5{fill:url(#SVGID_00000057841176623296762900000009182733251002978960_);}
	.st6{fill:url(#SVGID_00000053504144409988218020000017498020033943783593_);}
	.st7{fill-rule:evenodd;clip-rule:evenodd;fill:#FF1753;}
	.st8{fill-rule:evenodd;clip-rule:evenodd;fill:#00C9D0;}
	.st9{fill:#A1C945;}
</style>
<g>
	
		<linearGradient id="SVGID_1_" gradientUnits="userSpaceOnUse" x1="-38.8652" y1="-508.4098" x2="88.0827" y2="-381.462" gradientTransform="matrix(0 1 -1 0 -369.9359 50.3913)">
		<stop  offset="0" style="stop-color:#FF0000"/>
		<stop  offset="1" style="stop-color:#9B0000"/>
	</linearGradient>
	<path class="st0" d="M0,110.76V39.24C0,17.66,17.66,0,39.24,0l71.53,0C132.34,0,150,17.66,150,39.24l0,71.53
		c0,21.58-17.66,39.24-39.24,39.24H39.24C17.66,150,0,132.34,0,110.76z"/>
	<path class="st1" d="M115.15,64.09c0-9.95-8.06-18.01-18.01-18.01H51.09c-9.95,0-18.01,8.06-18.01,18.01v21.43
		c0,9.95,8.06,18.01,18.01,18.01h46.05c9.95,0,18.01-8.06,18.01-18.01V64.09z M88.07,76.42L67.42,86.63
		c-0.81,0.44-3.56-0.15-3.56-1.07V64.59c0-0.93,2.77-1.52,3.58-1.06l19.77,10.75C88.04,74.76,88.91,75.96,88.07,76.42z"/>
</g>
</svg>
